<svg xmlns="http://www.w3.org/2000/svg">
	<defs>
		<symbol id="open-bracket" width="39" height="141" viewBox="0 0 39 141" fill="none">
			<path d="M13.008 70.384C14.544 71.248 15.936 72.304 17.184 73.552C18.432 74.704 19.488 76.192 20.352 78.016C21.216 79.84 21.84 82.048 22.224 84.64C22.704 87.232 22.944 90.304 22.944 93.856V109.264C22.944 113.776 23.04 117.52 23.232 120.496C23.424 123.568 24 126.016 24.96 127.84C26.016 129.76 27.6 131.104 29.712 131.872C31.824 132.64 34.848 133.024 38.784 133.024V140.224H37.632C33.024 140.224 29.184 139.696 26.112 138.64C23.04 137.584 20.592 136.048 18.768 134.032C17.04 132.016 15.792 129.52 15.024 126.544C14.352 123.568 14.016 120.112 14.016 116.176V88.24C14.016 86.512 13.728 84.832 13.152 83.2C12.672 81.472 11.856 79.936 10.704 78.592C9.552 77.248 8.112 76.144 6.384 75.28C4.656 74.416 2.592 73.984 0.192 73.984V66.928C2.592 66.928 4.656 66.496 6.384 65.632C8.112 64.768 9.552 63.664 10.704 62.32C11.856 60.976 12.672 59.488 13.152 57.856C13.728 56.128 14.016 54.4 14.016 52.672V24.736C14.016 20.896 14.352 17.488 15.024 14.512C15.792 11.44 17.04 8.89599 18.768 6.88C20.592 4.86399 23.04 3.32799 26.112 2.272C29.184 1.21599 33.024 0.687991 37.632 0.687991H38.784V7.88799C34.848 7.88799 31.824 8.27199 29.712 9.04C27.6 9.808 26.016 11.152 24.96 13.072C24 14.896 23.424 17.344 23.232 20.416C23.04 23.392 22.944 27.136 22.944 31.648V47.056C22.944 50.608 22.704 53.68 22.224 56.272C21.84 58.768 21.216 60.928 20.352 62.752C19.488 64.576 18.432 66.112 17.184 67.36C15.936 68.512 14.544 69.52 13.008 70.384Z" fill="currentColor"/>
		</symbol>

		<symbol id="close-bracket" width="39" height="141" viewBox="0 0 39 141" fill="none">
			<path d="M25.928 70.384C24.392 69.52 23 68.512 21.752 67.36C20.504 66.112 19.448 64.576 18.584 62.752C17.72 60.928 17.048 58.768 16.568 56.272C16.184 53.68 15.992 50.608 15.992 47.056V31.648C15.992 27.136 15.896 23.392 15.704 20.416C15.512 17.344 14.888 14.896 13.832 13.072C12.872 11.152 11.336 9.808 9.224 9.04C7.112 8.27199 4.088 7.88799 0.152 7.88799V0.687991H1.304C5.912 0.687991 9.752 1.21599 12.824 2.272C15.896 3.32799 18.296 4.86399 20.024 6.88C21.848 8.89599 23.096 11.44 23.768 14.512C24.536 17.488 24.92 20.896 24.92 24.736V52.672C24.92 54.4 25.16 56.128 25.64 57.856C26.216 59.488 27.08 60.976 28.232 62.32C29.384 63.664 30.824 64.768 32.552 65.632C34.28 66.496 36.344 66.928 38.744 66.928V73.984C36.344 73.984 34.28 74.416 32.552 75.28C30.824 76.144 29.384 77.248 28.232 78.592C27.08 79.936 26.216 81.472 25.64 83.2C25.16 84.832 24.92 86.512 24.92 88.24V116.176C24.92 120.112 24.536 123.568 23.768 126.544C23.096 129.52 21.848 132.016 20.024 134.032C18.296 136.048 15.896 137.584 12.824 138.64C9.752 139.696 5.912 140.224 1.304 140.224H0.152V133.024C4.088 133.024 7.112 132.64 9.224 131.872C11.336 131.104 12.872 129.76 13.832 127.84C14.888 126.016 15.512 123.568 15.704 120.496C15.896 117.52 15.992 113.776 15.992 109.264V93.856C15.992 90.304 16.184 87.232 16.568 84.64C17.048 82.048 17.72 79.84 18.584 78.016C19.448 76.192 20.504 74.704 21.752 73.552C23 72.304 24.392 71.248 25.928 70.384Z" fill="currentColor"/>
		</symbol>

		<symbol id="close-bracket-horizontal" width="141" height="39" viewBox="0 0 141 39" fill="none" xmlns="http://www.w3.org/2000/svg">
            <path d="M70.616 25.928C71.48 24.392 72.488 23 73.64 21.752C74.888 20.504 76.424 19.448 78.248 18.584C80.072 17.72 82.232 17.048 84.728 16.568C87.32 16.184 90.392 15.992 93.944 15.992L109.352 15.992C113.864 15.992 117.608 15.896 120.584 15.704C123.656 15.512 126.104 14.888 127.928 13.832C129.848 12.872 131.192 11.336 131.96 9.224C132.728 7.112 133.112 4.088 133.112 0.151999L140.312 0.151999L140.312 1.304C140.312 5.912 139.784 9.752 138.728 12.824C137.672 15.896 136.136 18.296 134.12 20.024C132.104 21.848 129.56 23.096 126.488 23.768C123.512 24.536 120.104 24.92 116.264 24.92L88.328 24.92C86.6 24.92 84.872 25.16 83.144 25.64C81.512 26.216 80.024 27.08 78.68 28.232C77.336 29.384 76.232 30.824 75.368 32.552C74.504 34.28 74.072 36.344 74.072 38.744L67.016 38.744C67.016 36.344 66.584 34.28 65.72 32.552C64.856 30.824 63.752 29.384 62.408 28.232C61.064 27.08 59.528 26.216 57.8 25.64C56.168 25.16 54.488 24.92 52.76 24.92L24.824 24.92C20.888 24.92 17.432 24.536 14.456 23.768C11.48 23.096 8.984 21.848 6.968 20.024C4.952 18.296 3.416 15.896 2.36 12.824C1.304 9.75199 0.775998 5.91199 0.775998 1.30399L0.775999 0.151993L7.976 0.151993C7.976 4.08799 8.36 7.11199 9.128 9.22399C9.896 11.336 11.24 12.872 13.16 13.832C14.984 14.888 17.432 15.512 20.504 15.704C23.48 15.896 27.224 15.992 31.736 15.992L47.144 15.992C50.696 15.992 53.768 16.184 56.36 16.568C58.952 17.048 61.16 17.72 62.984 18.584C64.808 19.448 66.296 20.504 67.448 21.752C68.696 23 69.752 24.392 70.616 25.928Z" fill="currentColor"/>
        </symbol>

        <symbol id="open-bracket-horizontal" width="141" height="39" viewBox="0 0 141 39" fill="none" xmlns="http://www.w3.org/2000/svg">
            <path d="M70.384 13.072C69.52 14.608 68.512 16 67.36 17.248C66.112 18.496 64.576 19.552 62.752 20.416C60.928 21.28 58.768 21.952 56.272 22.432C53.68 22.816 50.608 23.008 47.056 23.008L31.648 23.008C27.136 23.008 23.392 23.104 20.416 23.296C17.344 23.488 14.896 24.112 13.072 25.168C11.152 26.128 9.808 27.664 9.03999 29.776C8.27199 31.888 7.88799 34.912 7.88799 38.848L0.687991 38.848L0.687991 37.696C0.687991 33.088 1.21599 29.248 2.272 26.176C3.32799 23.104 4.86399 20.704 6.88 18.976C8.89599 17.152 11.44 15.904 14.512 15.232C17.488 14.464 20.896 14.08 24.736 14.08L52.672 14.08C54.4 14.08 56.128 13.84 57.856 13.36C59.488 12.784 60.976 11.92 62.32 10.768C63.664 9.616 64.768 8.176 65.632 6.44799C66.496 4.71999 66.928 2.65599 66.928 0.255993L73.984 0.255992C73.984 2.65599 74.416 4.71999 75.28 6.44799C76.144 8.17599 77.248 9.61599 78.592 10.768C79.936 11.92 81.472 12.784 83.2 13.36C84.832 13.84 86.512 14.08 88.24 14.08L116.176 14.08C120.112 14.08 123.568 14.464 126.544 15.232C129.52 15.904 132.016 17.152 134.032 18.976C136.048 20.704 137.584 23.104 138.64 26.176C139.696 29.248 140.224 33.088 140.224 37.696L140.224 38.848L133.024 38.848C133.024 34.912 132.64 31.888 131.872 29.776C131.104 27.664 129.76 26.128 127.84 25.168C126.016 24.112 123.568 23.488 120.496 23.296C117.52 23.104 113.776 23.008 109.264 23.008L93.856 23.008C90.304 23.008 87.232 22.816 84.64 22.432C82.048 21.952 79.84 21.28 78.016 20.416C76.192 19.552 74.704 18.496 73.552 17.248C72.304 16 71.248 14.608 70.384 13.072Z" fill="currentColor"/>
        </symbol>
	</defs>
</svg>