<svg width="141" height="39" viewBox="0 0 141 39" fill="none" xmlns="http://www.w3.org/2000/svg">
<path d="M70.616 25.928C71.48 24.392 72.488 23 73.64 21.752C74.888 20.504 76.424 19.448 78.248 18.584C80.072 17.72 82.232 17.048 84.728 16.568C87.32 16.184 90.392 15.992 93.944 15.992L109.352 15.992C113.864 15.992 117.608 15.896 120.584 15.704C123.656 15.512 126.104 14.888 127.928 13.832C129.848 12.872 131.192 11.336 131.96 9.224C132.728 7.112 133.112 4.088 133.112 0.151999L140.312 0.151999L140.312 1.304C140.312 5.912 139.784 9.752 138.728 12.824C137.672 15.896 136.136 18.296 134.12 20.024C132.104 21.848 129.56 23.096 126.488 23.768C123.512 24.536 120.104 24.92 116.264 24.92L88.328 24.92C86.6 24.92 84.872 25.16 83.144 25.64C81.512 26.216 80.024 27.08 78.68 28.232C77.336 29.384 76.232 30.824 75.368 32.552C74.504 34.28 74.072 36.344 74.072 38.744L67.016 38.744C67.016 36.344 66.584 34.28 65.72 32.552C64.856 30.824 63.752 29.384 62.408 28.232C61.064 27.08 59.528 26.216 57.8 25.64C56.168 25.16 54.488 24.92 52.76 24.92L24.824 24.92C20.888 24.92 17.432 24.536 14.456 23.768C11.48 23.096 8.984 21.848 6.968 20.024C4.952 18.296 3.416 15.896 2.36 12.824C1.304 9.75199 0.775998 5.91199 0.775998 1.30399L0.775999 0.151993L7.976 0.151993C7.976 4.08799 8.36 7.11199 9.128 9.22399C9.896 11.336 11.24 12.872 13.16 13.832C14.984 14.888 17.432 15.512 20.504 15.704C23.48 15.896 27.224 15.992 31.736 15.992L47.144 15.992C50.696 15.992 53.768 16.184 56.36 16.568C58.952 17.048 61.16 17.72 62.984 18.584C64.808 19.448 66.296 20.504 67.448 21.752C68.696 23 69.752 24.392 70.616 25.928Z" fill="#4F5050"/>
</svg>
