<svg width="88" height="81" viewBox="0 0 88 81" fill="none" xmlns="http://www.w3.org/2000/svg">
<path d="M7.4 75C10.664 70.776 13.736 64.824 16.616 57.144C19.496 49.464 20.936 41.88 20.936 34.392C20.936 32.088 20.84 30.36 20.648 29.208C18.152 30.36 15.752 30.936 13.448 30.936C9.608 30.936 6.44 29.592 3.944 26.904C1.448 24.216 0.2 20.856 0.2 16.824C0.2 11.64 1.736 7.60799 4.808 4.72799C7.88 1.65599 11.624 0.119986 16.04 0.119986C22.376 0.119986 27.368 2.61599 31.016 7.60799C34.664 12.408 36.488 18.648 36.488 26.328C36.488 34.2 34.376 43.704 30.152 54.84C26.12 65.976 21.128 74.616 15.176 80.76L7.4 75ZM58.088 75C61.352 70.776 64.424 64.824 67.304 57.144C70.184 49.464 71.624 41.88 71.624 34.392C71.624 32.088 71.528 30.36 71.336 29.208C68.84 30.36 66.44 30.936 64.136 30.936C60.296 30.936 57.128 29.592 54.632 26.904C52.136 24.216 50.888 20.856 50.888 16.824C50.888 11.64 52.424 7.60799 55.496 4.72799C58.568 1.65599 62.312 0.119986 66.728 0.119986C73.064 0.119986 78.056 2.61599 81.704 7.60799C85.352 12.408 87.176 18.648 87.176 26.328C87.176 34.2 85.064 43.704 80.84 54.84C76.808 65.976 71.816 74.616 65.864 80.76L58.088 75Z" fill="#4F5050"/>
</svg>
