<svg width="39" height="141" viewBox="0 0 39 141" fill="none" xmlns="http://www.w3.org/2000/svg">
<path d="M25.928 70.384C24.392 69.52 23 68.512 21.752 67.36C20.504 66.112 19.448 64.576 18.584 62.752C17.72 60.928 17.048 58.768 16.568 56.272C16.184 53.68 15.992 50.608 15.992 47.056V31.648C15.992 27.136 15.896 23.392 15.704 20.416C15.512 17.344 14.888 14.896 13.832 13.072C12.872 11.152 11.336 9.808 9.224 9.04C7.112 8.27199 4.088 7.88799 0.152 7.88799V0.687991H1.304C5.912 0.687991 9.752 1.21599 12.824 2.272C15.896 3.32799 18.296 4.86399 20.024 6.88C21.848 8.89599 23.096 11.44 23.768 14.512C24.536 17.488 24.92 20.896 24.92 24.736V52.672C24.92 54.4 25.16 56.128 25.64 57.856C26.216 59.488 27.08 60.976 28.232 62.32C29.384 63.664 30.824 64.768 32.552 65.632C34.28 66.496 36.344 66.928 38.744 66.928V73.984C36.344 73.984 34.28 74.416 32.552 75.28C30.824 76.144 29.384 77.248 28.232 78.592C27.08 79.936 26.216 81.472 25.64 83.2C25.16 84.832 24.92 86.512 24.92 88.24V116.176C24.92 120.112 24.536 123.568 23.768 126.544C23.096 129.52 21.848 132.016 20.024 134.032C18.296 136.048 15.896 137.584 12.824 138.64C9.752 139.696 5.912 140.224 1.304 140.224H0.152V133.024C4.088 133.024 7.112 132.64 9.224 131.872C11.336 131.104 12.872 129.76 13.832 127.84C14.888 126.016 15.512 123.568 15.704 120.496C15.896 117.52 15.992 113.776 15.992 109.264V93.856C15.992 90.304 16.184 87.232 16.568 84.64C17.048 82.048 17.72 79.84 18.584 78.016C19.448 76.192 20.504 74.704 21.752 73.552C23 72.304 24.392 71.248 25.928 70.384Z" fill="#4F5050"/>
</svg>
