<svg width="39" height="141" viewBox="0 0 39 141" fill="none" xmlns="http://www.w3.org/2000/svg">
<path d="M13.008 70.384C14.544 71.248 15.936 72.304 17.184 73.552C18.432 74.704 19.488 76.192 20.352 78.016C21.216 79.84 21.84 82.048 22.224 84.64C22.704 87.232 22.944 90.304 22.944 93.856V109.264C22.944 113.776 23.04 117.52 23.232 120.496C23.424 123.568 24 126.016 24.96 127.84C26.016 129.76 27.6 131.104 29.712 131.872C31.824 132.64 34.848 133.024 38.784 133.024V140.224H37.632C33.024 140.224 29.184 139.696 26.112 138.64C23.04 137.584 20.592 136.048 18.768 134.032C17.04 132.016 15.792 129.52 15.024 126.544C14.352 123.568 14.016 120.112 14.016 116.176V88.24C14.016 86.512 13.728 84.832 13.152 83.2C12.672 81.472 11.856 79.936 10.704 78.592C9.552 77.248 8.112 76.144 6.384 75.28C4.656 74.416 2.592 73.984 0.192 73.984V66.928C2.592 66.928 4.656 66.496 6.384 65.632C8.112 64.768 9.552 63.664 10.704 62.32C11.856 60.976 12.672 59.488 13.152 57.856C13.728 56.128 14.016 54.4 14.016 52.672V24.736C14.016 20.896 14.352 17.488 15.024 14.512C15.792 11.44 17.04 8.89599 18.768 6.88C20.592 4.86399 23.04 3.32799 26.112 2.272C29.184 1.21599 33.024 0.687991 37.632 0.687991H38.784V7.88799C34.848 7.88799 31.824 8.27199 29.712 9.04C27.6 9.808 26.016 11.152 24.96 13.072C24 14.896 23.424 17.344 23.232 20.416C23.04 23.392 22.944 27.136 22.944 31.648V47.056C22.944 50.608 22.704 53.68 22.224 56.272C21.84 58.768 21.216 60.928 20.352 62.752C19.488 64.576 18.432 66.112 17.184 67.36C15.936 68.512 14.544 69.52 13.008 70.384Z" fill="#4F5050"/>
</svg>
