<svg width="88" height="81" viewBox="0 0 88 81" fill="none" xmlns="http://www.w3.org/2000/svg">
<path d="M29.336 5.88C26.072 10.104 23 16.056 20.12 23.736C17.24 31.416 15.8 39 15.8 46.488C15.8 48.792 15.896 50.52 16.088 51.672C18.584 50.52 20.984 49.944 23.288 49.944C27.128 49.944 30.296 51.288 32.792 53.976C35.288 56.664 36.536 60.024 36.536 64.056C36.536 69.24 35 73.368 31.928 76.44C28.856 79.32 25.112 80.76 20.696 80.76C14.36 80.76 9.368 78.36 5.72 73.56C2.072 68.568 0.248001 62.232 0.248001 54.552C0.248001 46.68 2.264 37.176 6.296 26.04C10.52 14.904 15.608 6.26399 21.56 0.119986L29.336 5.88ZM80.024 5.88C76.76 10.104 73.688 16.056 70.808 23.736C67.928 31.416 66.488 39 66.488 46.488C66.488 48.792 66.584 50.52 66.776 51.672C69.272 50.52 71.672 49.944 73.976 49.944C77.816 49.944 80.984 51.288 83.48 53.976C85.976 56.664 87.224 60.024 87.224 64.056C87.224 69.24 85.688 73.368 82.616 76.44C79.544 79.32 75.8 80.76 71.384 80.76C65.048 80.76 60.056 78.36 56.408 73.56C52.76 68.568 50.936 62.232 50.936 54.552C50.936 46.68 52.952 37.176 56.984 26.04C61.208 14.904 66.296 6.26399 72.248 0.119986L80.024 5.88Z" fill="#4F5050"/>
</svg>
