<svg width="141" height="39" viewBox="0 0 141 39" fill="none" xmlns="http://www.w3.org/2000/svg">
<path d="M70.384 13.072C69.52 14.608 68.512 16 67.36 17.248C66.112 18.496 64.576 19.552 62.752 20.416C60.928 21.28 58.768 21.952 56.272 22.432C53.68 22.816 50.608 23.008 47.056 23.008L31.648 23.008C27.136 23.008 23.392 23.104 20.416 23.296C17.344 23.488 14.896 24.112 13.072 25.168C11.152 26.128 9.808 27.664 9.03999 29.776C8.27199 31.888 7.88799 34.912 7.88799 38.848L0.687991 38.848L0.687991 37.696C0.687991 33.088 1.21599 29.248 2.272 26.176C3.32799 23.104 4.86399 20.704 6.88 18.976C8.89599 17.152 11.44 15.904 14.512 15.232C17.488 14.464 20.896 14.08 24.736 14.08L52.672 14.08C54.4 14.08 56.128 13.84 57.856 13.36C59.488 12.784 60.976 11.92 62.32 10.768C63.664 9.616 64.768 8.176 65.632 6.44799C66.496 4.71999 66.928 2.65599 66.928 0.255993L73.984 0.255992C73.984 2.65599 74.416 4.71999 75.28 6.44799C76.144 8.17599 77.248 9.61599 78.592 10.768C79.936 11.92 81.472 12.784 83.2 13.36C84.832 13.84 86.512 14.08 88.24 14.08L116.176 14.08C120.112 14.08 123.568 14.464 126.544 15.232C129.52 15.904 132.016 17.152 134.032 18.976C136.048 20.704 137.584 23.104 138.64 26.176C139.696 29.248 140.224 33.088 140.224 37.696L140.224 38.848L133.024 38.848C133.024 34.912 132.64 31.888 131.872 29.776C131.104 27.664 129.76 26.128 127.84 25.168C126.016 24.112 123.568 23.488 120.496 23.296C117.52 23.104 113.776 23.008 109.264 23.008L93.856 23.008C90.304 23.008 87.232 22.816 84.64 22.432C82.048 21.952 79.84 21.28 78.016 20.416C76.192 19.552 74.704 18.496 73.552 17.248C72.304 16 71.248 14.608 70.384 13.072Z" fill="#4F5050"/>
</svg>
