<svg width="84" height="367" viewBox="0 0 84 367" fill="none" xmlns="http://www.w3.org/2000/svg">
<g clip-path="url(#clip0)">
<path d="M63.4941 361.451C63.4941 344.848 53.6068 336.333 45.0092 328.67C36.4115 321.433 29.1035 315.047 29.1035 302.276C29.1035 289.504 36.4115 283.118 45.0092 275.881C53.6068 268.644 63.4941 260.13 63.4941 243.101C63.4941 226.498 53.6068 217.983 45.0092 210.32C36.4115 203.083 29.1035 196.697 29.1035 183.926C29.1035 171.154 36.4115 164.768 45.0092 157.531C53.6068 149.868 63.4941 141.354 63.4941 124.751C63.4941 108.148 53.6068 99.6332 45.0092 91.9702C36.4115 84.733 29.1035 78.3472 29.1035 65.5756C29.1035 52.804 36.4115 46.4182 45.0092 39.1809C53.6068 31.518 63.4941 23.0036 63.4941 6.40051C63.4941 3.84619 61.7746 2.14331 59.1953 2.14331C56.616 2.14331 54.8965 3.84619 54.8965 6.40051C54.8965 19.1721 47.5885 25.5579 38.9908 32.7951C30.3932 40.4581 20.5059 48.9725 20.5059 65.5756C20.5059 82.1786 30.3932 90.693 38.9908 98.356C47.5885 105.593 54.8965 111.979 54.8965 124.751C54.8965 137.522 47.5885 143.908 38.9908 151.145C30.3932 158.808 20.5059 167.323 20.5059 183.926C20.5059 200.529 30.3932 209.043 38.9908 216.706C47.5885 223.943 54.8965 230.329 54.8965 243.101C54.8965 255.872 47.5885 262.258 38.9908 269.495C30.3932 277.158 20.5059 285.673 20.5059 302.276C20.5059 318.879 30.3932 327.393 38.9908 335.056C47.5885 342.293 54.8965 348.679 54.8965 361.451C54.8965 364.005 56.616 365.708 59.1953 365.708C61.7746 365.708 63.4941 364.005 63.4941 361.451Z" fill="#97BAA2"/>
</g>
<defs>
<clipPath id="clip0">
<path d="M84 0L84 367L-7.8329e-07 367L1.52588e-05 -3.67176e-06L84 0Z" fill="white"/>
</clipPath>
</defs>
</svg>
